<svg width="25" height="25" viewBox="0 0 25 25" fill="none" xmlns="http://www.w3.org/2000/svg">
<path d="M10.5453 6.05724C10.5963 6.1609 10.6299 6.27192 10.645 6.38605L10.9234 10.526L11.0616 12.6068C11.063 12.8208 11.0966 13.0334 11.1612 13.2377C11.3282 13.6343 11.7297 13.8863 12.1666 13.8687L18.8239 13.4333C19.1122 13.4285 19.3906 13.5363 19.5978 13.733C19.7705 13.8969 19.882 14.1113 19.9171 14.3419L19.9289 14.4819C19.6534 18.2966 16.8517 21.4784 13.0449 22.2997C9.23813 23.121 5.33444 21.386 3.45329 18.0366C2.91097 17.0635 2.57223 15.994 2.45696 14.8907C2.40881 14.5641 2.3876 14.2342 2.39356 13.9043C2.38761 9.81444 5.30005 6.27867 9.37691 5.42627C9.86759 5.34987 10.3486 5.60963 10.5453 6.05724Z" fill="white"/>
<path opacity="0.4" d="M13.2622 2.50253C17.822 2.61854 21.6545 5.8975 22.3922 10.314L22.3851 10.3466L22.365 10.394L22.3678 10.5241C22.3573 10.6964 22.2908 10.8622 22.1761 10.9962C22.0567 11.1357 21.8935 11.2307 21.7137 11.2676L21.6041 11.2827L13.9234 11.7803C13.6679 11.8055 13.4135 11.7231 13.2235 11.5537C13.0652 11.4124 12.964 11.2218 12.9354 11.0164L12.4198 3.34677C12.4108 3.32084 12.4108 3.29272 12.4198 3.26679C12.4269 3.05538 12.5199 2.85555 12.6782 2.71194C12.8365 2.56833 13.0468 2.49291 13.2622 2.50253Z" fill="white"/>
</svg>
