<svg width="25" height="25" viewBox="0 0 25 25" fill="none" xmlns="http://www.w3.org/2000/svg">
<path opacity="0.4" d="M16.0874 2.03979H19.4733C20.8756 2.03979 22.0118 3.18565 22.0118 4.59976V8.01432C22.0118 9.42843 20.8756 10.5743 19.4733 10.5743H16.0874C14.6851 10.5743 13.5488 9.42843 13.5488 8.01432V4.59976C13.5488 3.18565 14.6851 2.03979 16.0874 2.03979Z" fill="white"/>
<path d="M7.93621 13.5053C9.33848 13.5053 10.4747 14.6512 10.4747 16.0653V19.4798C10.4747 20.893 9.33848 22.0398 7.93621 22.0398H4.55024C3.14797 22.0398 2.01172 20.893 2.01172 19.4798V16.0653C2.01172 14.6512 3.14797 13.5053 4.55024 13.5053H7.93621ZM19.4732 13.5053C20.8755 13.5053 22.0117 14.6512 22.0117 16.0653V19.4798C22.0117 20.893 20.8755 22.0398 19.4732 22.0398H16.0872C14.685 22.0398 13.5487 20.893 13.5487 19.4798V16.0653C13.5487 14.6512 14.685 13.5053 16.0872 13.5053H19.4732ZM7.93621 2.03979C9.33848 2.03979 10.4747 3.18565 10.4747 4.59976V8.01432C10.4747 9.42843 9.33848 10.5743 7.93621 10.5743H4.55024C3.14797 10.5743 2.01172 9.42843 2.01172 8.01432V4.59976C2.01172 3.18565 3.14797 2.03979 4.55024 2.03979H7.93621Z" fill="white"/>
</svg>
