<svg width="22" height="22" viewBox="0 0 22 22" fill="none" xmlns="http://www.w3.org/2000/svg">
<path d="M7.79183 17.4167H7.3335C3.66683 17.4167 1.8335 16.5 1.8335 11.9167V7.33333C1.8335 3.66666 3.66683 1.83333 7.3335 1.83333H14.6668C18.3335 1.83333 20.1668 3.66666 20.1668 7.33333V11.9167C20.1668 15.5833 18.3335 17.4167 14.6668 17.4167H14.2085C13.9243 17.4167 13.6493 17.5542 13.4752 17.7833L12.1002 19.6167C11.4952 20.4233 10.5052 20.4233 9.90016 19.6167L8.52516 17.7833C8.3785 17.5817 8.03933 17.4167 7.79183 17.4167Z" stroke="#161719" stroke-width="1.5" stroke-miterlimit="10" stroke-linecap="round" stroke-linejoin="round"/>
<path d="M6.4165 7.33334H15.5832" stroke="#161719" stroke-width="1.5" stroke-linecap="round" stroke-linejoin="round"/>
<path d="M6.4165 11.9167H11.9165" stroke="#161719" stroke-width="1.5" stroke-linecap="round" stroke-linejoin="round"/>
</svg>
