<svg width="22" height="22" viewBox="0 0 22 22" fill="none" xmlns="http://www.w3.org/2000/svg">
<path fillRule="evenodd" clipRule="evenodd" d="M10.7604 1.83333C15.6829 1.83333 19.6869 5.83733 19.6869 10.7598C19.6869 13.0822 18.7957 15.2004 17.3372 16.7901L20.207 19.654C20.4756 19.9226 20.4765 20.3571 20.208 20.6256C20.0741 20.7613 19.8972 20.8282 19.7212 20.8282C19.5461 20.8282 19.3701 20.7613 19.2354 20.6275L16.3309 17.7311C14.803 18.9547 12.8657 19.6872 10.7604 19.6872C5.83792 19.6872 1.83301 15.6823 1.83301 10.7598C1.83301 5.83733 5.83792 1.83333 10.7604 1.83333ZM10.7604 3.20833C6.59601 3.20833 3.20801 6.59541 3.20801 10.7598C3.20801 14.9242 6.59601 18.3122 10.7604 18.3122C14.9239 18.3122 18.3119 14.9242 18.3119 10.7598C18.3119 6.59541 14.9239 3.20833 10.7604 3.20833Z" fill="#656F93"/>
</svg>
