<svg width="25" height="25" viewBox="0 0 25 25" fill="none" xmlns="http://www.w3.org/2000/svg">
<path d="M12.6328 14.8868C11.0284 14.8868 9.73047 13.6368 9.73047 12.0668C9.73047 10.4968 11.0284 9.23676 12.6328 9.23676C14.2373 9.23676 15.5045 10.4968 15.5045 12.0668C15.5045 13.6368 14.2373 14.8868 12.6328 14.8868Z" fill="white"/>
<path opacity="0.4" d="M21.8512 14.4268C21.6571 14.1268 21.3811 13.8268 21.0234 13.6368C20.7373 13.4968 20.5533 13.2668 20.3898 12.9968C19.8686 12.1368 20.1752 11.0068 21.0439 10.4968C22.0658 9.92676 22.3929 8.65676 21.8001 7.66676L21.1154 6.48676C20.5329 5.49676 19.2555 5.14676 18.2437 5.72676C17.3444 6.20676 16.1896 5.88676 15.6684 5.03676C15.5049 4.75676 15.4129 4.45676 15.4333 4.15676C15.464 3.76676 15.3414 3.39676 15.1574 3.09676C14.7793 2.47676 14.0946 2.05676 13.3383 2.05676H11.8974C11.1513 2.07676 10.4666 2.47676 10.0885 3.09676C9.89432 3.39676 9.78191 3.76676 9.80235 4.15676C9.82279 4.45676 9.73081 4.75676 9.5673 5.03676C9.0461 5.88676 7.89129 6.20676 7.00218 5.72676C5.98023 5.14676 4.713 5.49676 4.12026 6.48676L3.43555 7.66676C2.85304 8.65676 3.18006 9.92676 4.1918 10.4968C5.06046 11.0068 5.36705 12.1368 4.85607 12.9968C4.68234 13.2668 4.49839 13.4968 4.21224 13.6368C3.86477 13.8268 3.55819 14.1268 3.39467 14.4268C3.01655 15.0468 3.03699 15.8268 3.41511 16.4768L4.12026 17.6768C4.49839 18.3168 5.20354 18.7168 5.93935 18.7168C6.28681 18.7168 6.6956 18.6168 7.02262 18.4168C7.27811 18.2468 7.5847 18.1868 7.92195 18.1868C8.93368 18.1868 9.78191 19.0168 9.80235 20.0068C9.80235 21.1568 10.7425 22.0568 11.928 22.0568H13.3179C14.4931 22.0568 15.4333 21.1568 15.4333 20.0068C15.464 19.0168 16.3122 18.1868 17.324 18.1868C17.651 18.1868 17.9576 18.2468 18.2233 18.4168C18.5503 18.6168 18.9489 18.7168 19.3066 18.7168C20.0321 18.7168 20.7373 18.3168 21.1154 17.6768L21.8308 16.4768C22.1987 15.8068 22.2293 15.0468 21.8512 14.4268Z" fill="white"/>
</svg>
