<svg width="25" height="25" viewBox="0 0 25 25" fill="none" xmlns="http://www.w3.org/2000/svg">
<path opacity="0.4" d="M7.09764 13.3922C6.58153 13.3922 6.16372 13.8163 6.16372 14.3401L5.90625 18.9188C5.90625 19.5863 6.43992 20.1267 7.09764 20.1267C7.75537 20.1267 8.28786 19.5863 8.28786 18.9188L8.03156 14.3401C8.03156 13.8163 7.61376 13.3922 7.09764 13.3922Z" fill="white"/>
<path d="M8.37295 4.17516C8.37295 4.17516 8.10494 3.8996 7.93876 3.77964C7.69767 3.59435 7.4004 3.50171 7.10431 3.50171C6.77194 3.50171 6.46297 3.60623 6.21135 3.80339C6.16571 3.84972 5.97144 4.02431 5.8111 4.18703C4.80462 5.13841 3.15797 7.62197 2.65473 8.92254C2.57515 9.11971 2.40311 9.61856 2.39258 9.8858C2.39258 10.14 2.44875 10.3846 2.56345 10.6163C2.72378 10.9061 2.9754 11.1389 3.27266 11.2659C3.47864 11.3479 4.0954 11.475 4.10711 11.475C4.78238 11.6033 5.88015 11.6722 7.09261 11.6722C8.24772 11.6722 9.29984 11.6033 9.98566 11.4987C9.99736 11.4869 10.7628 11.3598 11.0261 11.2196C11.5059 10.9643 11.8043 10.4654 11.8043 9.93212V9.8858C11.7926 9.53779 11.4942 8.80614 11.4837 8.80614C10.9804 7.57565 9.41337 5.15029 8.37295 4.17516Z" fill="white"/>
<path opacity="0.4" d="M17.6875 11.6113C18.2036 11.6113 18.6214 11.1873 18.6214 10.6635L18.8777 6.08466C18.8777 5.41714 18.3452 4.87671 17.6875 4.87671C17.0298 4.87671 16.4961 5.41714 16.4961 6.08466L16.7536 10.6635C16.7536 11.1873 17.1714 11.6113 17.6875 11.6113Z" fill="white"/>
<path d="M22.2214 14.387C22.061 14.0972 21.8094 13.8656 21.5121 13.7373C21.3062 13.6553 20.6882 13.5283 20.6777 13.5283C20.0024 13.4 18.9047 13.3311 17.6922 13.3311C16.5371 13.3311 15.485 13.4 14.7992 13.5045C14.7875 13.5164 14.0221 13.6447 13.7587 13.7836C13.2777 14.039 12.9805 14.5379 12.9805 15.0723V15.1187C12.9922 15.4667 13.2894 16.1972 13.3011 16.1972C13.8044 17.4277 15.3703 19.8543 16.4119 20.8282C16.4119 20.8282 16.6799 21.1038 16.8461 21.2226C17.086 21.4091 17.3832 21.5017 17.6817 21.5017C18.0129 21.5017 18.3207 21.3972 18.5735 21.2C18.6191 21.1537 18.8134 20.9791 18.9737 20.8176C19.979 19.865 21.6268 17.3814 22.1289 16.0819C22.2097 15.8848 22.3817 15.3847 22.3922 15.1187C22.3922 14.8633 22.3361 14.6186 22.2214 14.387Z" fill="white"/>
</svg>
